<?xml version="1.0" encoding="UTF-8"?> <svg xmlns="http://www.w3.org/2000/svg" xmlns:xlink="http://www.w3.org/1999/xlink" version="1.1" id="Layer_1" x="0px" y="0px" viewBox="0 0 1200 630" style="enable-background:new 0 0 1200 630;" xml:space="preserve"> <style type="text/css"> .st0{fill:#FFFFFF;} .st1{fill:#B45EF9;} .st2{fill:url(#SVGID_1_);} .st3{fill:url(#SVGID_00000119825844782567643640000010453930322069384591_);} .st4{fill:#02024E;} .st5{fill:none;stroke:#02024E;stroke-width:6.25;stroke-linejoin:round;} .st6{fill:none;stroke:#1AB8E8;stroke-width:2.24;stroke-linecap:round;stroke-miterlimit:10;} .st7{fill:none;stroke:#B45EF9;stroke-width:3.37;stroke-linecap:round;stroke-linejoin:round;} .st8{fill:#1AB8E8;} .st9{fill:#199FD5;} .st10{clip-path:url(#SVGID_00000070085242493939120440000015595391005701089714_);} .st11{fill-rule:evenodd;clip-rule:evenodd;fill:#02024E;} .st12{fill-rule:evenodd;clip-rule:evenodd;fill:url(#Combined-Shape-2_00000050659763577923849900000011084113379764162221_);fill-opacity:0.5;} .st13{fill:none;stroke:#1EB8E8;stroke-width:2.27;stroke-linecap:round;stroke-linejoin:round;} .st14{fill:none;stroke:#1AB8E8;stroke-width:2;stroke-linecap:round;stroke-linejoin:round;} .st15{fill:none;stroke:#1AB8E8;stroke-width:2;stroke-miterlimit:2.81;} .st16{fill:#02024E;stroke:#1AB8E8;stroke-width:2;stroke-miterlimit:2.81;} .st17{fill-rule:evenodd;clip-rule:evenodd;fill:#1AB8E8;} </style> <g id="Artwork_73"> <path class="st0" d="M870.9,73.7c31.4,2.4,132.5,10.2,210.3,66c89,63.7,121,170.9,59.1,253.9c-33.7,45.2-85.6,70.3-113.7,81.9 c-117.7,55.6-212.8,65.8-278.1,64.8c-138.1-2.1-175.3-54.9-298.6-36.7c-84.1,12.4-121.7,45-193.5,45.2h-0.9 c-7.5,0-15.3-0.4-23.6-1.2c-1.7-0.2-3.4-0.3-5.1-0.5c-67.8-7.5-126-41.4-155.8-89.2c-21.3-34-43.3-82.7-43.3-139.1v-0.5 c0-25.2,4.5-50.2,13.1-73.9c8-22,19.1-42.7,32.9-61.6c38.6-53.1,114.7-83.4,193-76.6l1,0.1h0.5c166.6,15,311.7,6.5,311.7,6.5 c164.5-9.6,176.5-40.5,258.9-40.5C848.5,72.3,859.1,72.8,870.9,73.7"></path> </g> <polygon class="st1" points="79.4,150.3 86.2,127 72.7,127 "></polygon> <polygon class="st1" points="79.4,103.7 72.7,127 86.2,127 "></polygon> <polygon class="st1" points="56.2,127 79.5,133.7 79.5,120.3 "></polygon> <polygon class="st1" points="102.7,127 79.4,120.3 79.4,133.7 "></polygon> <polygon class="st1" points="415.6,245.2 422.3,221.9 408.8,221.9 "></polygon> <polygon class="st1" points="415.6,198.6 408.8,221.9 422.3,221.9 "></polygon> <polygon class="st1" points="392.3,221.9 415.6,228.6 415.6,215.2 "></polygon> <polygon class="st1" points="438.8,221.9 415.5,215.2 415.5,228.6 "></polygon> <polygon class="st1" points="95.3,413.3 102,390 88.6,390 "></polygon> <polygon class="st1" points="95.3,366.8 88.6,390.1 102,390.1 "></polygon> <polygon class="st1" points="72.1,390.1 95.3,396.8 95.3,383.3 "></polygon> <polygon class="st1" points="118.6,390.1 95.3,383.3 95.3,396.8 "></polygon> <polygon class="st1" points="363.4,110.7 366.7,99.1 360,99.1 "></polygon> <polygon class="st1" points="363.4,87.4 360,99.1 366.7,99.1 "></polygon> <polygon class="st1" points="351.7,99.1 363.4,102.4 363.4,95.7 "></polygon> <polygon class="st1" points="375,99.1 363.3,95.7 363.3,102.4 "></polygon> <polygon class="st1" points="72.7,281.8 76.1,270.1 69.4,270.1 "></polygon> <polygon class="st1" points="72.7,258.5 69.4,270.2 76.1,270.2 "></polygon> <polygon class="st1" points="61.1,270.1 72.8,273.5 72.8,266.8 "></polygon> <polygon class="st1" points="84.4,270.1 72.7,266.8 72.7,273.5 "></polygon> <linearGradient id="SVGID_1_" gradientUnits="userSpaceOnUse" x1="934.378" y1="-3303.5486" x2="1072.168" y2="-2666.8684" gradientTransform="matrix(0.7623 -0.65 0.65 0.7623 1447.8588 3258.7388)"> <stop offset="0" style="stop-color:#B9EAF8"></stop> <stop offset="0.52" style="stop-color:#1AB8E8"></stop> <stop offset="1" style="stop-color:#21E6AD"></stop> </linearGradient> <path class="st2" d="M89.5,173.5l244.9-62.9c7.2-1.8,14.5,2.5,16.3,9.7l84.6,329.5c1.8,7.2-2.5,14.5-9.7,16.3L180.8,529 c-7.2,1.8-14.5-2.5-16.3-9.7L79.8,189.8C78,182.6,82.3,175.3,89.5,173.5z"></path> <linearGradient id="SVGID_00000078725943907940792320000001793807031605631368_" gradientUnits="userSpaceOnUse" x1="822.9503" y1="-3020.365" x2="1166.2604" y2="-3020.365" gradientTransform="matrix(0.76 -0.65 0.65 0.76 1448.29 3259.9402)"> <stop offset="0" style="stop-color:#F2E3FD"></stop> <stop offset="1" style="stop-color:#D9F7FF"></stop> </linearGradient> <polygon style="fill:url(#SVGID_00000078725943907940792320000001793807031605631368_);" points="326.1,131.5 106.8,187.8 186.3,497.3 374,449.1 397.5,409.4 "></polygon> <path class="st4" d="M315.8,146.4L123,196l0.3-30.9c0.1-8.2,5.7-15.3,13.7-17.4l143.3-36.8c8-2,16.3,1.5,20.3,8.7L315.8,146.4z"></path> <circle class="st5" cx="206.7" cy="115.4" r="14.8"></circle> <circle class="st0" cx="175.3" cy="299" r="14.3"></circle> <line class="st6" x1="201" y1="286.4" x2="325" y2="252.2"></line> <line class="st6" x1="203.9" y1="297.5" x2="327.8" y2="263.3"></line> <polyline class="st7" points="167.8,298.5 176.4,303.1 187.2,279.3 "></polyline> <circle class="st0" cx="183.1" cy="330.3" r="14.3"></circle> <line class="st6" x1="208.8" y1="317.8" x2="332.7" y2="283.5"></line> <line class="st6" x1="211.6" y1="328.9" x2="335.5" y2="294.6"></line> <polyline class="st7" points="175.5,329.8 184.1,334.4 194.9,310.6 "></polyline> <circle class="st0" cx="191.8" cy="361.6" r="14.3"></circle> <line class="st6" x1="217.5" y1="349.1" x2="341.5" y2="314.8"></line> <line class="st6" x1="220.4" y1="360.2" x2="344.3" y2="325.9"></line> <polyline class="st7" points="184.3,361.1 192.9,365.7 203.7,341.9 "></polyline> <circle class="st0" cx="199.6" cy="392.9" r="14.3"></circle> <line class="st6" x1="225.2" y1="380.4" x2="349.2" y2="346.1"></line> <line class="st6" x1="228.1" y1="391.5" x2="352" y2="357.2"></line> <polyline class="st7" points="192,392.4 200.6,397 211.4,373.2 "></polyline> <circle class="st0" cx="208.3" cy="424.2" r="14.3"></circle> <line class="st6" x1="234" y1="411.7" x2="358" y2="377.5"></line> <line class="st6" x1="236.9" y1="422.8" x2="360.8" y2="388.5"></line> <polyline class="st7" points="200.8,423.7 209.4,428.3 220.2,404.5 "></polyline> <circle class="st0" cx="214.7" cy="455.5" r="14.3"></circle> <line class="st6" x1="240.4" y1="443" x2="364.3" y2="408.8"></line> <line class="st6" x1="243.2" y1="454.1" x2="367.8" y2="419.6"></line> <polyline class="st7" points="207.1,455 215.7,459.6 226.5,435.8 "></polyline> <path class="st4" d="M243.6,175.7c-6.4-0.1-12.8-1.3-18.9-3.4c-7.7,9.7-18.2,16.9-30.1,20.4l8.2,28.4c6,20.9,24.8,35.6,46.6,36.4 c18-12.3,26-34.7,20-55.6l-8.2-28.4C255.4,175.1,249.5,175.8,243.6,175.7"></path> <path class="st4" d="M247.7,252.2c-18.8-1.5-34.8-14.5-40-32.6L201,196c9.8-3.8,18.5-9.9,25.5-17.7c5.5,1.6,11.3,2.5,17.1,2.6 c4.7,0.1,9.4-0.3,14-1.2l6.8,23.6c5.3,18.1-1.3,37.6-16.5,48.9"></path> <path class="st8" d="M256.5,209.3c0,10.8-8.8,19.6-19.6,19.5c-10.8,0-19.6-8.8-19.5-19.6c0-10.8,8.8-19.6,19.6-19.5 C247.7,189.7,256.5,198.4,256.5,209.3L256.5,209.3"></path> <path class="st9" d="M252.3,205.3c2.5,8.5-2.4,17.4-10.8,19.9c-8.5,2.5-17.4-2.4-19.9-10.8c-2.5-8.5,2.4-17.4,10.8-19.9c0,0,0,0,0,0 h0.1C241,192,249.8,196.9,252.3,205.3L252.3,205.3"></path> <path class="st0" d="M236.4,217.4c-0.4,0.1-0.9,0.1-1.3-0.2l-6.3-3.4l1.6-2.9l4.8,2.7l6.1-12.1l3,1.5l-6.9,13.6 C237.2,217,236.9,217.3,236.4,217.4L236.4,217.4z"></path> <g> <defs> <path id="SVGID_00000075128802962568503750000016232170553576193166_" d="M870.9,73.7c31.4,2.4,132.5,10.2,210.3,66 c89,63.7,121,170.9,59.1,253.9c-33.7,45.2-85.6,70.3-113.7,81.9c-117.7,55.6-212.8,65.8-278.1,64.8 c-138.1-2.1-90.4,59.1-298.6-36.7c-84.1,12.4-121.7,45-193.5,45.2h-0.9c-7.5,0-15.3-0.4-23.6-1.2c-1.7-0.2-3.4-0.3-5.1-0.5 c-67.8-7.5-126-41.4-155.8-89.2c-21.3-34-43.3-82.7-43.3-139.1v-0.5c0-25.2,4.5-50.2,13.1-73.9c8-22,19.1-42.7,32.9-61.6 c38.6-53.1,114.7-83.4,193-76.6l1,0.1h0.5c166.6,15,311.7,6.5,311.7,6.5c164.5-9.6,176.5-40.5,258.9-40.5 C848.5,72.3,859.1,72.8,870.9,73.7"></path> </defs> <clipPath id="SVGID_00000123405793829225197060000000202500932251578809_"> <use xlink:href="#SVGID_00000075128802962568503750000016232170553576193166_" style="overflow:visible;"></use> </clipPath> <g style="clip-path:url(#SVGID_00000123405793829225197060000000202500932251578809_);"> <g id="Master_Character_Male_Torso"> <g id="Master_Character_Male_Torso-2"> <g id="Male_Body"> <g id="Male_Body_5"> <g id="Group-2"> <g id="Group-3"> <path id="Combined-Shape" class="st11" d="M820.9,286.9l107.2,1.5c33.6,0,62.1,3.8,85.9,10.5 c36.9,10.3,70.4,36.1,100.4,77.6c47.8,50.1,72.2,98.4,73.4,145.1c3.3,132.4-180.2,52.2-180.2,52.2l0,0l-15.2,97.5 c0,0-99.7,63.7-252.1,0c-15.5-104.5-24.2-165.7-26-183.6c-2.8-26.8-19.7,44.8-81.2,56.1c-33.7,6.3-65-7.8-130.7-122.4 l-0.2,0.2l-7.8-12.1l-38.4-4.9c-7.4-0.9-14.1-5.1-18.1-11.5l0,0l-23.6-37.4c-1.7-2.8-1-6.4,1.6-8.3c2.8-2,6.6-1.8,9.2,0.4 l0,0l33.7,28.2l17.6-5L456.6,355c-0.2-0.1-0.4-0.3-0.5-0.5c-2.4-2.4-2.4-6.3,0-8.8c2.9-2.9,7.4-3.4,10.9-1.4l40.6,23.2 c9.5,0,18.6,6.2,27.3,18.7l0,0l-0.2,0.2c5,4.9,15.9,15.1,24,20.6c10.8,7.4,48.9,19.9,56.9,26.2c0,0,6.6-42.5,55.9-86.1 C680.4,339.2,714.5,299.6,820.9,286.9L820.9,286.9z M1035,475c-7.6,39.4-17,36.8-17,36.8c26.7-2.2,47.1-4.4,47.1-4.4 c-26.5-20.4-20.6-32.1-20.6-32.1L1035,475z"></path> <linearGradient id="Combined-Shape-2_00000129184265362828314150000002958404021088880058_" gradientUnits="userSpaceOnUse" x1="-2434.2212" y1="-1599.9232" x2="-2434.2212" y2="-1600.8431" gradientTransform="matrix(725.15 0 0 -388.52 1766030.75 -621311.125)"> <stop offset="0" style="stop-color:#B45EF9"></stop> <stop offset="0.51" style="stop-color:#1AB8E8"></stop> <stop offset="1" style="stop-color:#21E6AD"></stop> </linearGradient> <path id="Combined-Shape-2" style="fill-rule:evenodd;clip-rule:evenodd;fill:url(#Combined-Shape-2_00000129184265362828314150000002958404021088880058_);fill-opacity:0.5;" d=" M950.2,552.8c17.5,10.9,36.8,18.5,57.1,22.5l-11.6,71.4l-4.5,0.7C963.6,631.5,950.2,552.8,950.2,552.8z M975.5,291 c13,1.6,25.8,4.2,38.4,7.6c36.9,10.3,70.4,36.1,100.4,77.6c47.8,50.1,72.2,98.4,73.4,145.1c2.9,116.1-137.9,68.8-172.6,55.3 l0,0c67.5,10.3,126.5-19,126.5-19c37.5-22.5-37.9-163.5-37.9-163.5c-31.5-59.9-79.8-79.1-126.6-102.1L975.5,291z M690.8,422.8c2.4,10,5.3,19.9,8.7,29.6c3.2,9.2,9,18.5,11.5,29.4c-11.4,9.4-29.1,52.6-78,61.9 c-29.3,5.9-58.7-5.2-110.2-88.4l0,0c10.1,8.7,73.4,62,108.3,60.7C631,516,644.4,446.8,690.8,422.8L690.8,422.8z"></path> <g id="Group"> <path id="Shape" class="st13" d="M1000.7,571.7l-50.6-21 M977.8,513.8l86.2-5.8c0,0,53.9-0.7,71,15.2"></path> <path id="Stroke-29" class="st14" d="M710.8,481.1c0,0-32.7-67.1-18.3-113.4"></path> <path id="Stroke-31" class="st14" d="M639.7,455c0,0-14.2-15.6-25-21"></path> <path id="Stroke-35" class="st14" d="M983.3,447.2c-41.3,7.1-80.8-2.7-80.8-2.7l-3.7-28.2c0,0,58.1,6.8,81-0.2L983.3,447.2 z"></path> <path id="Stroke-43" class="st14" d="M1045.1,337.7c0,0-56,43.2-11.2,123.4"></path> </g> </g> </g> <path id="Path-136" class="st15" d="M951,550.6c-36.6-3.7-54.9-16.7-54.8-39c0.1,0-36.6-12.6-36.6-15.5s-20.5-15.7,118,17.5"></path> </g> </g> <g id="Dark_Male"> <g id="Dark_Male_Face"> <path id="face" class="st11" d="M816.6,124.1c-25.8,0-40.7,11-44.5,33c-2.2,53.2-2.8,84.5-1.8,93.8c0.8,9,6.7,16.8,15.2,19.8 c2,0.7,9.4,1.1,22.3,1.3v32c23.5,32,51.4,32,83.7,0l-15.2-76c10.1-4.8,13.3-20.8,2.7-26.4c-2.5-1.5-5.4-2.3-8.4-2.2l-8.5-42.3 C857.6,135.1,842.4,124.1,816.6,124.1z"></path> <path id="collar" class="st14" d="M888.4,291.3c0.7,44-82.6,50.8-80.7,1.2"></path> </g> </g> <g id="Dark_Male_Mouth"> <g id="Dark_Male_Mouth_8"> <path id="Mouth" class="st14" d="M816,233.2c1.2,5.3-3.7,7.9-14.6,7.9"></path> </g> </g> <g id="Dark_Male_Nose"> <g id="Dark_Male_Nose_5"> <path id="Path-53" class="st14" d="M792.4,207.8c-5.4,16.2-13.2,18.1,6.2,18.1"></path> </g> </g> <g id="Dark_Male_Glasses"> <g id="Dark_Male_Glasses_4"> <g id="Group-2-2"> <g id="Group-2-3"> <circle id="Oval" class="st16" cx="772.5" cy="203.2" r="16.5"></circle> <line id="Line-2" class="st14" x1="782.5" y1="215.1" x2="760.9" y2="192.8"></line> <line id="Line-2-Copy" class="st14" x1="778.8" y1="217.5" x2="758.7" y2="197"></line> </g> <g id="Group-3-2"> <circle id="Oval-2" class="st16" cx="811.2" cy="203.2" r="16.5"></circle> <line id="Line-2-2" class="st14" x1="821.2" y1="215.1" x2="799.6" y2="192.8"></line> <line id="Line-2-Copy-2" class="st14" x1="817.5" y1="217.5" x2="797.4" y2="197"></line> </g> <line id="Line" class="st14" x1="794.5" y1="201.9" x2="788.7" y2="201.9"></line> </g> </g> </g> </g> </g> <g id="Dark_Male_Hair"> <g id="Dark_Male_Hair_11"> <path id="Path-50" class="st17" d="M771.2,181.2c-10.2-2.7-11.1-9.1-8.9-16.3c0,0-55.9-61.8,38.1-61.8s97.8,60.4,95.9,99.2 c-1.3,25.8,0,43.7-14.8,51.9l-5.2-26c3.9-2.7,8-5.8,7.8-13.4c0-14.2-17.2-20.6-24.6-8.1c0,0-20.1-17.5-20.1-45.9 c0,0-16.5,8-66.8,0.4C772.5,161,771.7,167.7,771.2,181.2z"></path> </g> </g> </g> </g> <polygon class="st1" points="374,449.1 397.5,409.4 365.9,417.5 "></polygon> </svg> 